<svg width="406" height="226" viewBox="0 0 406 226" fill="none" xmlns="http://www.w3.org/2000/svg">
<path d="M6.975 146V80.9H16.647V146H6.975ZM71.0433 116.844V146H61.3713V119.216C61.3713 117.139 60.8598 115.248 59.8368 113.543C58.8448 111.838 57.4963 110.489 55.7913 109.497C54.1173 108.474 52.2263 107.963 50.1183 107.963C48.0723 107.963 46.1968 108.474 44.4918 109.497C42.7868 110.489 41.4228 111.838 40.3998 113.543C39.3768 115.248 38.8653 117.139 38.8653 119.216V146H29.1933V99.5H38.8653V104.429C40.4773 102.507 42.4613 100.988 44.8173 99.872C47.1733 98.756 49.7153 98.198 52.4433 98.198C55.8843 98.198 59.0153 99.035 61.8363 100.709C64.6573 102.383 66.8893 104.63 68.5323 107.451C70.2063 110.272 71.0433 113.403 71.0433 116.844ZM94.2751 146.884C91.8261 146.729 89.4391 146.233 87.1141 145.395C84.7891 144.558 82.7431 143.427 80.9761 142.001C79.2401 140.544 77.9381 138.839 77.0701 136.886L85.3006 133.352C85.7036 134.189 86.4011 135.01 87.3931 135.816C88.4161 136.622 89.6096 137.289 90.9736 137.816C92.3376 138.312 93.7636 138.56 95.2516 138.56C96.7086 138.56 98.0571 138.358 99.2971 137.955C100.568 137.521 101.607 136.87 102.413 136.002C103.219 135.134 103.622 134.096 103.622 132.887C103.622 131.523 103.157 130.469 102.227 129.725C101.328 128.95 100.196 128.361 98.8321 127.958C97.4681 127.555 96.1041 127.167 94.7401 126.795C91.7021 126.113 88.9121 125.183 86.3701 124.005C83.8591 122.796 81.8596 121.262 80.3716 119.402C78.8836 117.511 78.1396 115.201 78.1396 112.473C78.1396 109.497 78.9456 106.924 80.5576 104.754C82.1696 102.553 84.2776 100.864 86.8816 99.686C89.5166 98.508 92.3221 97.919 95.2981 97.919C99.0181 97.919 102.428 98.7095 105.528 100.29C108.628 101.871 111 104.041 112.643 106.8L104.97 111.357C104.505 110.427 103.808 109.59 102.878 108.846C101.948 108.102 100.894 107.513 99.7156 107.079C98.5376 106.614 97.3131 106.351 96.0421 106.289C94.4611 106.227 92.9886 106.413 91.6246 106.847C90.2916 107.25 89.2221 107.901 88.4161 108.8C87.6101 109.699 87.2071 110.846 87.2071 112.241C87.2071 113.605 87.6876 114.628 88.6486 115.31C89.6096 115.961 90.8186 116.488 92.2756 116.891C93.7636 117.294 95.2826 117.743 96.8326 118.239C99.5916 119.107 102.18 120.177 104.598 121.448C107.016 122.688 108.969 124.222 110.457 126.051C111.945 127.88 112.658 130.112 112.596 132.747C112.596 135.661 111.713 138.219 109.946 140.42C108.21 142.621 105.947 144.295 103.157 145.442C100.367 146.589 97.4061 147.07 94.2751 146.884ZM118.699 128.562V99.5H128.371V126.191C128.371 128.268 128.882 130.159 129.905 131.864C130.928 133.569 132.292 134.933 133.997 135.956C135.702 136.948 137.578 137.444 139.624 137.444C141.701 137.444 143.576 136.948 145.25 135.956C146.955 134.933 148.304 133.569 149.296 131.864C150.319 130.159 150.83 128.268 150.83 126.191V99.5H160.502L160.549 146H150.877L150.83 140.978C149.249 142.9 147.281 144.419 144.925 145.535C142.569 146.651 140.042 147.209 137.345 147.209C133.904 147.209 130.773 146.372 127.952 144.698C125.131 143.024 122.884 140.776 121.21 137.955C119.536 135.134 118.699 132.003 118.699 128.562ZM169.874 146V99.5H179.546V104.429C181.158 102.507 183.142 100.988 185.498 99.872C187.854 98.756 190.396 98.198 193.124 98.198C194.86 98.198 196.58 98.4305 198.285 98.8955L194.426 108.66C193.217 108.195 192.008 107.963 190.799 107.963C188.753 107.963 186.877 108.474 185.172 109.497C183.467 110.489 182.103 111.838 181.08 113.543C180.057 115.248 179.546 117.139 179.546 119.216V146H169.874Z" fill="black"/>
<path fill-rule="evenodd" clip-rule="evenodd" d="M300.019 16.8786C310.363 0.549227 331.986 -4.3034 348.316 6.04068C364.645 16.3848 369.497 38.0083 359.153 54.3376C349.829 69.0563 340.322 84.0628 331.168 98.068C337.574 104.98 343.552 111.403 348.974 117.186C371.55 141.268 383.385 153.095 395.741 165.442C409.413 179.106 409.421 201.266 395.757 214.939C382.093 228.612 359.933 228.619 346.26 214.956C333.623 202.327 321.201 189.912 297.905 165.061C295.4 162.39 292.782 159.585 290.06 156.664C286.983 160.54 285.063 162.625 282.959 164.797C269.51 178.68 247.352 179.033 233.468 165.584C219.584 152.134 219.233 129.976 232.682 116.092C233.347 115.406 233.547 115.202 234.146 114.486C234.959 113.513 236.453 111.639 239.266 107.867C240.044 106.824 240.896 105.668 241.819 104.411C231.175 92.82 220.174 80.8221 209.2 68.8493C196.138 54.6001 197.101 32.4598 211.35 19.3981C225.599 6.33647 247.74 7.29924 260.801 21.5485C267.979 29.3785 275.147 37.1962 282.203 44.8883C288.016 35.8253 293.98 26.4114 300.019 16.8786Z" fill="url(#paint0_linear_595_332)"/>
<path fill-rule="evenodd" clip-rule="evenodd" d="M304.74 17.0003C312.214 6.78161 325.536 1.79824 338.402 5.52358C354.853 10.2869 364.327 27.4835 359.564 43.934C359.084 45.594 358.474 47.1819 357.753 48.6924C362.497 31.7945 352.736 14.2018 335.846 9.31113C324.454 6.01268 312.715 9.33082 304.74 17.0003Z" fill="white"/>
<defs>
<linearGradient id="paint0_linear_595_332" x1="291.658" y1="0.602877" x2="291.658" y2="205.808" gradientUnits="userSpaceOnUse">
<stop stop-color="#09A5FF"/>
<stop offset="0.778846" stop-color="#10025E"/>
</linearGradient>
</defs>
</svg>
